<svg width="32" height="32" viewBox="0 0 32 32" fill="none" xmlns="http://www.w3.org/2000/svg">
<path d="M16 9C12.1317 9 9 12.1351 9 16C9 19.8683 12.1351 23 16 23C19.8683 23 23 19.8649 23 16C23 12.1317 19.8649 9 16 9V9ZM16 20.5435C13.489 20.5435 11.4565 18.5099 11.4565 16C11.4565 13.4901 13.4901 11.4565 16 11.4565C18.5099 11.4565 20.5435 13.4901 20.5435 16C20.5447 18.5099 18.511 20.5435 16 20.5435V20.5435Z" fill="#9D9EB4"/>
<path d="M21.3606 3.08167C18.9686 2.97009 13.0438 2.9755 10.6497 3.08167C8.54583 3.18025 6.69008 3.68832 5.194 5.18438C2.69366 7.68467 3.01325 11.0538 3.01325 15.9948C3.01325 21.0517 2.73158 24.3428 5.194 26.8052C7.70408 29.3141 11.122 28.9859 16.0046 28.9859C21.0139 28.9859 22.7429 28.9891 24.5142 28.3034C26.9224 27.3685 28.7403 25.2159 28.9179 21.3496C29.0306 18.9566 29.0241 13.033 28.9179 10.6389C28.7034 6.07487 26.254 3.307 21.3606 3.08167V3.08167ZM25.1468 25.1509C23.5078 26.79 21.2338 26.6438 15.9732 26.6438C10.5565 26.6438 8.38441 26.7239 6.7995 25.1347C4.97408 23.318 5.3045 20.4006 5.3045 15.9774C5.3045 9.99213 4.69025 5.68162 10.6973 5.37396C12.0775 5.32521 12.4837 5.30896 15.958 5.30896L16.0067 5.34146C21.7798 5.34146 26.3093 4.73697 26.5812 10.7429C26.6429 12.1133 26.657 12.5249 26.657 15.9937C26.6559 21.3474 26.7578 23.5325 25.1468 25.1509V25.1509Z" fill="#9D9EB4"/>
<path d="M22.5 11C23.3284 11 24 10.3284 24 9.5C24 8.67157 23.3284 8 22.5 8C21.6716 8 21 8.67157 21 9.5C21 10.3284 21.6716 11 22.5 11Z" fill="#9D9EB4"/>
</svg>
