<?xml version="1.0" standalone="no"?>
<!DOCTYPE svg PUBLIC "-//W3C//DTD SVG 20010904//EN"
 "http://www.w3.org/TR/2001/REC-SVG-20010904/DTD/svg10.dtd">
<svg version="1.0" xmlns="http://www.w3.org/2000/svg"
 width="1290.000000pt" height="449.000000pt" viewBox="0 0 1290.000000 449.000000"
 preserveAspectRatio="xMidYMid meet">

<g transform="translate(0.000000,449.000000) scale(0.100000,-0.100000)"
fill="#000000" stroke="none">
<path d="M9155 4480 c-247 -23 -473 -91 -714 -215 -346 -179 -634 -472 -815
-828 -49 -96 -104 -234 -120 -299 l-6 -28 174 0 174 0 12 38 c19 58 104 225
151 294 188 279 464 501 761 612 488 182 1014 121 1441 -166 236 -159 421
-373 548 -635 l49 -102 167 6 c93 3 170 8 172 10 3 2 -15 52 -38 111 -319 795
-1108 1280 -1956 1202z" style="fill:#28285b;fill-opacity:1;fill-rule:nonzero;stroke:none"/>
<path d="M9107 3934 c-178 -27 -384 -111 -551 -222 -180 -120 -394 -373 -469
-554 l-16 -38 57 0 57 0 40 72 c111 200 292 381 496 496 91 51 249 110 360
132 195 41 462 25 647 -36 300 -100 543 -303 726 -606 15 -25 22 -28 71 -28
30 0 55 3 55 8 0 15 -82 156 -127 220 -72 102 -246 271 -343 334 -183 120
-373 195 -559 223 -118 18 -326 18 -444 -1z" style="fill:#28285b;fill-opacity:1;fill-rule:nonzero;stroke:none"/>
<path d="M9232 3610 c-131 -14 -125 -10 -118 -93 35 -390 35 -1402 0 -1858
l-6 -87 73 -12 c74 -13 310 -9 358 6 23 7 23 8 17 108 -27 409 -33 1023 -14
1485 7 163 13 327 13 366 l0 70 -45 6 c-92 13 -207 17 -278 9z" style="fill:#28285b;fill-opacity:1;fill-rule:nonzero;stroke:none"/>
<path d="M2560 3303 c-530 -16 -1294 -83 -1800 -158 -91 -14 -168 -25 -172
-25 -5 0 -8 -18 -8 -39 l0 -39 58 -6 c31 -3 109 -9 172 -12 l115 -7 -50 -14
c-27 -7 -104 -31 -170 -51 l-120 -38 -3 -78 -3 -78 38 6 c210 33 363 41 813
41 562 -1 656 -7 1585 -110 633 -70 947 -104 1165 -126 132 -13 477 -36 650
-44 459 -20 1193 -67 1795 -115 204 -16 456 -34 560 -40 251 -15 255 -16 255
-43 0 -45 50 -259 83 -359 88 -263 231 -500 431 -715 250 -269 626 -475 1011
-554 146 -30 458 -37 620 -15 297 42 553 137 795 296 222 147 414 338 557 557
66 100 172 320 208 428 53 162 95 378 95 488 l0 46 43 5 c23 4 101 13 172 21
433 51 1047 149 1400 222 40 9 40 9 43 61 3 51 2 52 -25 53 -15 1 -80 4 -143
8 l-115 6 105 33 c58 18 121 38 140 45 l35 13 3 73 3 74 -48 -7 c-258 -37
-325 -44 -708 -70 -465 -33 -1166 -56 -2090 -71 -198 -3 -379 -8 -402 -11
l-43 -5 0 -295 0 -295 93 6 c362 23 574 38 712 50 88 8 165 15 171 15 30 0
-36 -250 -102 -389 -122 -258 -321 -465 -570 -593 -292 -151 -661 -182 -969
-81 -322 104 -600 344 -747 644 -40 83 -92 228 -103 291 l-7 38 488 2 489 3 3
265 c2 146 0 280 -3 297 l-6 33 -562 -6 c-309 -3 -818 -9 -1132 -14 -1023 -17
-1595 12 -2240 114 -166 26 -483 90 -621 125 -252 64 -600 116 -949 141 -122
9 -752 11 -995 3z m2100 -374 c698 -49 1133 -89 1775 -164 478 -56 686 -83
691 -88 5 -5 -72 -11 -371 -32 -539 -36 -836 -43 -1215 -25 -592 28 -906 82
-1594 274 -109 31 -208 57 -220 58 -12 0 2 4 29 8 86 13 463 0 905 -31z m6250
-488 c0 -54 -43 -259 -74 -354 -154 -470 -544 -860 -1011 -1011 -179 -59 -263
-70 -495 -70 -184 0 -230 3 -317 22 -407 88 -762 328 -989 669 -110 164 -200
376 -234 548 -6 33 -14 68 -16 78 -5 15 4 17 100 17 l105 0 11 -57 c64 -306
258 -610 513 -802 237 -177 490 -266 797 -278 265 -10 499 50 740 192 340 200
595 574 652 955 6 41 15 79 19 83 8 10 93 24 157 26 35 1 42 -2 42 -18z" style="fill:#28285b;fill-opacity:1;fill-rule:nonzero;stroke:none"/>
<path d="M10 1900 l0 -140 270 0 270 0 0 -875 0 -875 285 0 285 0 0 875 0 875
270 0 270 0 0 140 0 140 -825 0 -825 0 0 -140z" style="fill:#28285b;fill-opacity:1;fill-rule:nonzero;stroke:none"/>
<path d="M1937 2033 c-4 -3 -7 -460 -7 -1015 l0 -1008 655 0 655 0 0 135 0
135 -370 0 -370 0 0 310 0 310 335 0 335 0 0 135 0 135 -335 0 -335 0 0 295 0
295 350 0 350 0 0 140 0 140 -628 0 c-346 0 -632 -3 -635 -7z" style="fill:#28285b;fill-opacity:1;fill-rule:nonzero;stroke:none"/>
<path d="M3670 1025 l0 -1015 145 0 145 0 0 735 c0 404 3 735 8 734 4 0 48
-63 97 -139 50 -77 265 -408 479 -735 l388 -595 164 0 164 0 0 1015 0 1015
-150 0 -150 0 -2 -519 -3 -519 -335 519 -335 519 -307 0 -308 0 0 -1015z" style="fill:#28285b;fill-opacity:1;fill-rule:nonzero;stroke:none"/>
<path d="M5540 1900 l0 -140 270 0 270 0 0 -875 0 -875 285 0 285 0 0 875 0
875 270 0 270 0 0 140 0 140 -825 0 -825 0 0 -140z" style="fill:#28285b;fill-opacity:1;fill-rule:nonzero;stroke:none"/>
</g>
</svg>
